<svg width="42" height="40" viewBox="0 0 42 40" fill="none" xmlns="http://www.w3.org/2000/svg">
<path d="M3.29832 14.0299C3.21049 14.9173 3.77199 29.9685 4.64404 30.6458C5.60078 31.3858 24.08 36.8544 26.4609 36.3935C28.7602 35.9482 38.0202 27.8331 39.1118 25.5033C40.1313 23.3334 36.8878 7.61435 36.5333 7.11578C36.1224 6.53568 15.5258 1.99837 14.613 2.66313C12.1097 4.48495 3.37675 13.2303 3.29832 14.0299Z" fill="white"/>
<path d="M0.650804 14.0299C0.36535 17.9526 0.886068 22.1325 1.22485 26.0395C1.38169 27.8645 1.3315 30.141 2.23805 31.7872C2.9909 33.1544 4.64088 33.5463 6.01796 34.0135C10.648 35.5845 15.3909 36.914 20.1464 38.0429C21.9846 38.4787 23.9106 38.9836 25.8084 39.0619C27.7438 39.1403 29.4032 37.9864 30.9026 36.8952C33.2772 35.1674 35.5326 33.2547 37.6469 31.2165C39.1149 29.8055 41.0692 28.1279 41.7028 26.1211C42.2612 24.3525 41.9036 22.1983 41.6871 20.4016C41.3578 17.6642 40.9092 14.9393 40.3948 12.2301C40.0591 10.4615 39.7674 8.63658 39.2498 6.90883C38.7542 5.25006 37.7221 4.63234 36.1631 4.16826C32.0225 2.93908 27.7281 2.10499 23.4965 1.26777C21.0811 0.78801 18.6469 0.311389 16.1971 0.0417217C14.1518 -0.184046 12.9912 0.518343 11.4479 1.86041C9.18618 3.82647 7.04685 5.95245 4.9577 8.10038C3.6214 9.47067 1.2123 11.3709 0.744909 13.3275C-0.0424412 16.6357 5.05808 18.0498 5.84543 14.7323C5.70114 15.3438 5.59449 15.4253 5.70428 15.1023C5.74506 14.9863 6.02424 14.7731 5.73251 15.0459C5.43764 15.3218 6.15598 14.5536 6.28146 14.4125C6.98411 13.6129 7.71814 12.8415 8.45843 12.0764C10.1492 10.3298 11.8839 8.61777 13.6656 6.96527C14.3683 6.31305 15.0835 5.67651 15.8144 5.05565C16.2723 4.66683 15.6356 5.11209 15.4442 5.16853C14.8388 5.35354 14.8451 5.19048 15.4191 5.25633C15.6732 5.28455 15.9304 5.30337 16.1876 5.32845C16.9311 5.40057 15.8457 5.2626 16.6707 5.3943C17.593 5.53854 18.5152 5.69219 19.4343 5.86152C23.7067 6.63916 27.9603 7.55164 32.1762 8.59268C32.8757 8.76514 33.5752 8.94074 34.2685 9.13515C34.5414 9.21041 34.8111 9.29821 35.0872 9.37346C35.5295 9.49262 35.724 9.74661 35.0778 9.3327C35.5609 9.64627 34.0301 8.13174 34.2591 8.48607C33.6819 7.58613 34.0583 7.86207 34.0803 8.10979C34.0991 8.31047 34.1963 8.5331 34.2465 8.73065C34.441 9.49889 34.6041 10.2734 34.7672 11.051C35.6518 15.2685 36.5741 19.4264 36.6556 23.6219C36.6619 23.9512 36.6305 24.2804 36.6399 24.6097C36.6525 25.1615 36.7748 24.1487 36.6682 24.4341C36.6462 24.4936 36.5835 24.6661 36.5929 24.7225C36.4674 23.9669 36.9693 24.3682 36.5929 24.5814C36.5396 24.6128 36.3953 24.8637 36.3764 24.8919C36.6839 24.456 35.8651 25.472 35.6801 25.6727C33.9673 27.5446 32.057 29.2473 30.1027 30.8622C29.3311 31.4987 28.5469 32.1164 27.7281 32.6903C27.3611 32.9474 26.9878 33.1983 26.602 33.4303C26.4107 33.5463 26.213 33.6498 26.0185 33.7627C25.7111 33.9414 25.4727 33.7878 26.006 33.7846C25.2782 33.7909 26.693 33.9226 26.0593 33.7878C25.8366 33.7407 25.57 33.7564 25.341 33.7376C24.7262 33.6905 25.9778 33.8473 25.3065 33.7313C25.1308 33.7 24.9552 33.6717 24.7795 33.6404C24.2964 33.5557 23.8165 33.4585 23.3397 33.355C18.9042 32.4112 14.522 31.1507 10.19 29.8117C9.2301 29.5138 8.27022 29.2128 7.31662 28.8867C6.97157 28.7676 6.62965 28.6421 6.28773 28.523C6.1748 28.4853 6.06815 28.4352 5.95522 28.3944C5.50665 28.2408 6.52927 28.7581 6.15598 28.4759C5.78897 28.1969 6.9998 29.3978 6.99666 29.5672C6.9998 29.3006 6.85237 28.94 6.79904 28.6735C6.76767 28.5104 6.74571 28.3442 6.72062 28.1781C6.821 28.8397 6.69552 27.968 6.68297 27.8331C6.63279 27.2781 6.57632 26.7325 6.52927 26.1869C6.30655 23.6752 6.17167 21.1542 6.06188 18.6331C5.996 17.1217 5.83289 15.5476 5.94268 14.0331C6.19049 10.634 0.898615 10.6497 0.650804 14.0299Z" fill="white"/>
<path d="M15.9561 12.6534V8.65229C18.66 8.65229 19.2905 7.35413 19.4662 5.73926H23.3622V31.8468H18.6945V12.6534H15.9561Z" fill="#111111"/>
</svg>
