<svg width="42" height="40" viewBox="0 0 42 40" fill="none" xmlns="http://www.w3.org/2000/svg">
<path d="M3.29784 25.1003C3.21 24.2129 3.7715 9.16174 4.64355 8.48444C5.60029 7.74442 24.0795 2.27582 26.4604 2.73676C28.7597 3.18203 38.0197 11.2971 39.1113 13.6269C40.1308 15.7968 36.8873 31.5159 36.5328 32.0145C36.1219 32.5946 15.5253 37.1319 14.6125 36.4671C12.1093 34.6484 3.37626 25.9031 3.29784 25.1003Z" fill="white"/>
<path d="M5.94251 25.1004C5.6947 21.67 6.14327 18.042 6.39422 14.621C6.46951 13.5988 6.55106 12.5797 6.66399 11.5606C6.68595 11.3505 6.71104 11.1435 6.73614 10.9366C6.83024 10.1589 6.64203 11.4602 6.76123 10.7579C6.8177 10.4317 6.92749 10.0837 6.95258 9.75444C6.95886 9.68545 7.02787 9.58511 7.01846 9.51926C7.06865 9.90181 6.15582 10.6387 6.01466 10.7422C6.19346 10.6105 6.72673 10.4631 5.84527 10.7923C6.43814 10.5728 7.02787 10.3533 7.62701 10.1527C11.8084 8.74789 16.0777 7.55006 20.3564 6.48394C21.3068 6.24876 22.2573 6.01986 23.214 5.81604C23.6626 5.71883 24.1112 5.6279 24.5597 5.54324C24.7417 5.50875 24.9236 5.48053 25.1056 5.44603C25.7235 5.33001 25.2467 5.41781 25.2593 5.41467C25.5102 5.38959 25.8239 5.41467 26.0654 5.3551C26.674 5.19831 25.3283 5.47425 26.0121 5.35824C25.78 5.399 25.529 5.12306 25.849 5.28925C26.0372 5.38646 26.2223 5.48366 26.4042 5.59027C26.8622 5.85367 27.3014 6.15156 27.7342 6.45258C29.6477 7.79151 31.4263 9.34366 33.1359 10.9303C34.0142 11.7456 34.8769 12.5828 35.6893 13.4671C35.9779 13.7838 36.2696 14.1036 36.5331 14.4423C36.2069 14.0221 36.4296 14.3356 36.4986 14.4078C36.9001 14.8342 36.5112 14.9628 36.599 14.4172C36.5959 14.4391 36.646 14.6053 36.6617 14.6398C36.8405 15.0882 36.646 13.9656 36.646 14.5301C36.646 14.8593 36.668 15.1854 36.6617 15.5178C36.6429 16.4898 36.5425 17.4619 36.4327 18.4308C36.1975 20.491 35.774 22.9399 35.3505 25.1851C35.0212 26.9316 34.6886 28.6845 34.2526 30.4091C34.2024 30.6035 34.1052 30.8261 34.0864 31.0299C34.0644 31.2745 33.6849 31.5536 34.2652 30.6537C33.6943 31.541 35.5544 29.4997 35.109 29.7945C35.2752 29.6847 35.8054 29.5687 35.2094 29.7286C34.9239 29.8039 34.6416 29.9011 34.3561 29.9826C30.4727 31.0738 26.4983 31.886 22.5459 32.6793C21.3727 32.9145 20.1995 33.1402 19.0232 33.3535C18.5088 33.4444 17.9943 33.5353 17.4799 33.6169C17.2854 33.6482 17.0909 33.6796 16.8964 33.7109C16.8211 33.7235 15.9773 33.8426 16.4039 33.7862C16.727 33.7423 15.8173 33.852 15.6323 33.8677C15.4409 33.8803 15.1084 33.8269 14.9327 33.8928C14.6692 33.99 15.7138 34.0276 15.3939 33.9586C15.9742 34.2534 16.1153 34.3004 15.8173 34.0966C16.0871 34.3067 16.1436 34.3475 15.9836 34.2189C15.6793 33.8708 15.2307 33.5855 14.8826 33.2782C12.8656 31.4909 10.9395 29.5938 9.05114 27.6685C8.19478 26.7936 7.34469 25.9125 6.52911 25.0032C6.24052 24.6802 5.95506 24.3541 5.67902 24.0186C5.45944 23.7521 5.90487 24.5516 5.76999 24.1346C5.66647 23.8179 5.64451 23.5702 5.84527 24.4105C5.05792 21.0993 -0.0457401 22.5009 0.744747 25.8153C1.15254 27.5274 3.10366 29.114 4.27057 30.3338C6.17464 32.325 8.13831 34.2659 10.1616 36.1317C11.5387 37.4016 13.0255 39.1482 15.0237 39.1889C16.68 39.2234 18.4021 38.8158 20.027 38.5304C24.7323 37.7058 29.425 36.6992 34.0581 35.5359C35.2658 35.2317 36.7339 35.0028 37.8192 34.3475C39.2559 33.482 39.4441 31.5034 39.7641 30.0108C40.7773 25.3042 41.8532 20.3593 41.9473 15.5303C41.9881 13.3605 41.3482 11.9776 39.9617 10.3471C38.227 8.30576 36.1755 6.49962 34.1272 4.78441C32.3423 3.29497 30.4696 1.66128 28.3491 0.65787C26.583 -0.179353 24.8954 0.124806 23.0384 0.476001C18.2672 1.3728 13.5588 2.77131 8.92253 4.19803C7.15961 4.74051 5.0642 5.18891 3.44872 6.12647C1.61993 7.18946 1.58856 9.58197 1.37839 11.4414C1.07098 14.2008 0.923548 16.9821 0.794937 19.7572C0.713379 21.5132 0.515757 23.3507 0.641231 25.1098C0.895316 28.4775 6.19033 28.5026 5.94251 25.1004Z" fill="white"/>
<path d="M19.5437 11.3977V15.4333H15.1552V10.8364C15.1552 8.41568 16.3849 5.96045 19.9295 5.96045H20.8769C24.2459 5.96045 26.1782 7.60981 26.1782 10.9775V12.4513C26.1782 15.2577 26.1091 16.6625 23.8977 19.541C23.0915 20.6291 22.1787 21.7862 21.3349 22.8742C18.3517 26.8032 18.5964 27.2955 18.5964 27.8568H21.8618V23.401H26.426V32.3847H14.5938V29.7194C14.5938 26.5273 14.9451 25.157 17.7526 20.4911L19.9986 16.7722C21.2282 14.7027 21.2972 13.9313 21.2972 12.9812V11.3977C21.2972 10.5918 21.0149 10.2061 20.4189 10.2061C19.7539 10.2061 19.5437 10.5573 19.5437 11.3977Z" fill="#111111"/>
</svg>
