<svg width="42" height="40" viewBox="0 0 42 40" fill="none" xmlns="http://www.w3.org/2000/svg">
<path d="M3.29832 14.0577C3.21049 14.9451 3.77199 29.9963 4.64404 30.6736C5.60078 31.4137 24.08 36.8823 26.4609 36.4213C28.7602 35.9761 38.0202 27.8609 39.1118 25.5311C40.1313 23.3613 36.8878 7.64218 36.5333 7.14361C36.1224 6.56351 15.5258 2.0262 14.613 2.69096C12.1097 4.51278 3.37675 13.2582 3.29832 14.0577Z" fill="white"/>
<path d="M0.650804 14.0578C0.36535 17.9805 0.886068 22.1603 1.22485 26.0674C1.38169 27.8923 1.3315 30.1688 2.23805 31.815C2.9909 33.1822 4.64088 33.5741 6.01796 34.0414C10.648 35.6123 15.3909 36.9418 20.1464 38.0707C21.9846 38.5065 23.9106 39.0114 25.8084 39.0898C27.7438 39.1682 29.4032 38.0143 30.9026 36.923C33.2772 35.1953 35.5326 33.2825 37.6469 31.2443C39.1149 29.8333 41.0692 28.1557 41.7028 26.1489C42.2612 24.3804 41.9036 22.2262 41.6871 20.4294C41.3578 17.692 40.9092 14.9671 40.3948 12.2579C40.0591 10.4894 39.7674 8.66441 39.2498 6.93666C38.7542 5.27789 37.7221 4.66016 36.1631 4.19608C32.0225 2.9669 27.7281 2.13281 23.4965 1.29559C21.0811 0.815834 18.6469 0.339221 16.1971 0.0695539C14.1518 -0.156214 12.9912 0.546171 11.4479 1.88824C9.18618 3.8543 7.04685 5.98028 4.9577 8.12821C3.6214 9.50163 1.2123 11.4018 0.748046 13.3585C-0.0393043 16.6666 5.06122 18.0808 5.84857 14.7633C5.70428 15.3747 5.59762 15.4563 5.70741 15.1333C5.74819 15.0173 6.02737 14.804 5.73564 15.0768C5.44078 15.3528 6.15912 14.5846 6.28459 14.4434C6.98725 13.6439 7.72127 12.8725 8.46157 12.1074C10.1523 10.3608 11.887 8.64874 13.6687 6.99624C14.3714 6.34402 15.0866 5.70748 15.8175 5.08662C16.2755 4.6978 15.6387 5.14306 15.4473 5.1995C14.8419 5.3845 14.8482 5.22145 15.4223 5.2873C15.6763 5.31552 15.9336 5.33434 16.1908 5.35942C16.9342 5.43154 15.8489 5.29357 16.6739 5.42527C17.5961 5.56951 18.5183 5.72315 19.4374 5.89248C23.7098 6.67012 27.9634 7.58261 32.1793 8.62365C32.8788 8.79611 33.5784 8.9717 34.2716 9.16612C34.5445 9.24137 34.8143 9.32917 35.0903 9.40443C35.5326 9.52358 35.7271 9.77757 35.0809 9.36366C35.564 9.67723 34.0332 8.1627 34.2622 8.51703C33.685 7.61709 34.0614 7.89304 34.0834 8.14076C34.1022 8.34144 34.1995 8.56406 34.2497 8.76161C34.4441 9.52985 34.6073 10.3044 34.7704 11.082C35.655 15.2995 36.5772 19.4574 36.6588 23.6529C36.665 23.9821 36.6337 24.3114 36.6431 24.6406C36.6556 25.1925 36.778 24.1797 36.6713 24.465C36.6493 24.5246 36.5866 24.6971 36.596 24.7535C36.4705 23.9978 36.9724 24.3992 36.596 24.6124C36.5427 24.6438 36.3984 24.8946 36.3796 24.9228C36.687 24.487 35.8683 25.5029 35.6832 25.7036C33.9705 27.5756 32.0601 29.2783 30.1059 30.8931C29.3342 31.5297 28.55 32.1474 27.7313 32.7212C27.3643 32.9784 26.991 33.2292 26.6051 33.4613C26.4138 33.5773 26.2162 33.6808 26.0217 33.7936C25.7143 33.9724 25.4759 33.8187 26.0091 33.8156C25.2814 33.8219 26.6961 33.9536 26.0625 33.8187C25.8397 33.7717 25.5731 33.7874 25.3441 33.7686C24.7293 33.7215 25.9809 33.8783 25.3096 33.7623C25.134 33.7309 24.9583 33.7027 24.7826 33.6713C24.2995 33.5867 23.8196 33.4895 23.3428 33.386C18.9073 32.4422 14.5251 31.1816 10.1931 29.8427C9.23324 29.5448 8.27336 29.2438 7.31976 28.9177C6.9747 28.7985 6.63279 28.6731 6.29087 28.5539C6.17794 28.5163 6.07129 28.4661 5.95836 28.4254C5.50979 28.2717 6.53241 28.7891 6.15912 28.5069C5.79211 28.2278 7.00293 29.4288 6.9998 29.5981C7.00293 29.3316 6.8555 28.971 6.80218 28.7045C6.77081 28.5414 6.74885 28.3752 6.72375 28.209C6.82413 28.8706 6.69866 27.9989 6.68611 27.8641C6.62651 27.3185 6.57318 26.7729 6.523 26.2241C6.30028 23.7125 6.16539 21.1914 6.0556 18.6703C5.98973 17.1589 5.82661 15.5848 5.9364 14.0703C6.19049 10.6618 0.898615 10.6775 0.650804 14.0578Z" fill="white"/>
<path d="M15.0682 14.0546V10.6869C15.0682 8.30068 16.1912 5.70435 19.7014 5.70435H20.6832C24.2279 5.70435 25.8088 7.73939 25.8088 10.7214V13.6344C25.8088 16.1618 24.965 17.1433 24.1243 17.6011C25.423 18.0212 26.0566 19.0058 26.0566 20.5831V27.1084C26.0566 30.4761 24.0898 32.5112 20.862 32.5112H19.8802C16.0187 32.5112 14.7891 30.1939 14.7891 27.8077V22.5429H19.3532V26.6851C19.3532 27.4909 19.67 27.9143 20.335 27.9143C20.9655 27.9143 21.2823 27.4941 21.2823 26.6851V21.599C21.2823 20.8622 21.2133 20.5455 20.404 20.5455H17.9824V15.8796H20.1594C20.9655 15.8796 21.1412 15.5629 21.1412 14.7225V11.1416C21.1412 10.1946 20.8965 9.95004 20.2284 9.95004C19.6324 9.95004 19.35 10.1946 19.35 11.1416V14.0546H15.0682Z" fill="#111111"/>
</svg>
