<svg width="42" height="40" viewBox="0 0 42 40" fill="none" xmlns="http://www.w3.org/2000/svg">
<path d="M3.29784 25.1282C3.21 24.2408 3.7715 9.18957 4.64355 8.51227C5.60029 7.77225 24.0795 2.30365 26.4604 2.7646C28.7597 3.20986 38.0197 11.325 39.1113 13.6548C40.1308 15.8246 36.8873 31.5437 36.5328 32.0423C36.1219 32.6224 15.5253 37.1597 14.6125 36.495C12.1093 34.6763 3.37626 25.9309 3.29784 25.1282Z" fill="white"/>
<path d="M5.94251 25.1282C5.6947 21.6978 6.14327 18.0698 6.39422 14.6488C6.46951 13.6266 6.55106 12.6075 6.66399 11.5884C6.68595 11.3783 6.71104 11.1714 6.73614 10.9644C6.83024 10.1868 6.64203 11.4881 6.76123 10.7857C6.8177 10.4596 6.92749 10.1115 6.95258 9.78227C6.95886 9.71328 7.02787 9.61294 7.01846 9.54709C7.06865 9.92964 6.15582 10.6665 6.01466 10.77C6.19346 10.6383 6.72673 10.4909 5.84527 10.8202C6.43814 10.6007 7.02787 10.3812 7.62701 10.1805C11.8084 8.77573 16.0777 7.57789 20.3564 6.51176C21.3068 6.27659 22.2573 6.04769 23.214 5.84387C23.6626 5.74667 24.1112 5.65573 24.5597 5.57106C24.7417 5.53657 24.9236 5.50835 25.1056 5.47386C25.7235 5.35784 25.2467 5.44564 25.2593 5.44251C25.5102 5.41742 25.8239 5.44251 26.0654 5.38293C26.674 5.22615 25.3283 5.50208 26.0121 5.38606C25.78 5.42682 25.529 5.15088 25.849 5.31707C26.0372 5.41428 26.2223 5.51149 26.4042 5.6181C26.8622 5.8815 27.3014 6.17939 27.7342 6.48041C29.6477 7.81934 31.4263 9.3715 33.1359 10.9581C34.0142 11.7734 34.8769 12.6106 35.6893 13.4949C35.9779 13.8116 36.2696 14.1314 36.5331 14.4701C36.2069 14.0499 36.4296 14.3635 36.4986 14.4356C36.9001 14.862 36.5112 14.9906 36.599 14.445C36.5959 14.467 36.646 14.6331 36.6617 14.6676C36.8405 15.116 36.646 13.9935 36.646 14.5579C36.646 14.8871 36.668 15.2132 36.6617 15.5456C36.6429 16.5177 36.5425 17.4897 36.4327 18.4586C36.1975 20.5188 35.774 22.9677 35.3505 25.2129C35.0212 26.9594 34.6886 28.7123 34.2526 30.4369C34.2024 30.6313 34.1052 30.8539 34.0864 31.0578C34.0644 31.3023 33.6849 31.5814 34.2652 30.6815C33.6943 31.5689 35.5544 29.5275 35.109 29.8223C35.2752 29.7125 35.8054 29.5965 35.2094 29.7565C34.9239 29.8317 34.6416 29.9289 34.3561 30.0104C30.4727 31.1017 26.4983 31.9138 22.5459 32.7071C21.3727 32.9423 20.1995 33.1681 19.0232 33.3813C18.5088 33.4722 17.9943 33.5631 17.4799 33.6447C17.2854 33.676 17.0909 33.7074 16.8964 33.7387C16.8211 33.7513 15.9773 33.8705 16.4039 33.814C16.727 33.7701 15.8173 33.8798 15.6323 33.8955C15.4409 33.9081 15.1084 33.8548 14.9327 33.9206C14.6692 34.0178 15.7138 34.0555 15.3939 33.9865C15.9742 34.2812 16.1153 34.3283 15.8173 34.1244C16.0871 34.3345 16.1436 34.3753 15.9836 34.2467C15.6793 33.8987 15.2307 33.6133 14.8826 33.306C12.8656 31.5187 10.9395 29.6216 9.05114 27.6963C8.19478 26.8215 7.34469 25.9404 6.52911 25.031C6.24052 24.708 5.95506 24.3819 5.67902 24.0464C5.45944 23.7799 5.90487 24.5795 5.76999 24.1624C5.66647 23.8457 5.64451 23.598 5.84527 24.4384C5.05792 21.1271 -0.0457401 22.5287 0.744747 25.8431C1.15254 27.5552 3.10366 29.1419 4.27057 30.3616C6.17464 32.3528 8.13831 34.2938 10.1616 36.1595C11.5387 37.4294 13.0255 39.176 15.0237 39.2168C16.68 39.2513 18.4021 38.8436 20.027 38.5583C24.7323 37.7336 29.425 36.727 34.0581 35.5637C35.2658 35.2595 36.7339 35.0306 37.8192 34.3753C39.2559 33.5098 39.4441 31.5312 39.7641 30.0387C40.7773 25.332 41.8532 20.3871 41.9473 15.5582C41.9881 13.3883 41.3482 12.0055 39.9617 10.3749C38.227 8.3336 36.1755 6.52745 34.1272 4.81224C32.3423 3.3228 30.4696 1.68911 28.3491 0.6857C26.583 -0.151523 24.8954 0.152641 23.0384 0.503835C18.2672 1.40064 13.5588 2.79914 8.92253 4.22587C7.15961 4.76834 5.0642 5.21674 3.44872 6.1543C1.61993 7.21729 1.58856 9.60981 1.37839 11.4693C1.07098 14.2286 0.923548 17.01 0.794937 19.785C0.713379 21.541 0.515757 23.3785 0.641231 25.1376C0.895316 28.5053 6.19033 28.5304 5.94251 25.1282Z" fill="white"/>
<path d="M12.9316 24.0244C14.337 20.1989 17.4958 11.3563 18.7944 7.53076H22.9006V23.5321H25.3222V27.9879H22.9006V33.8139H18.3364V27.9879H12.9316V24.0244ZM18.3364 17.1792C17.7749 18.8976 16.9311 21.566 16.194 23.5289H18.3364V17.1792Z" fill="#111111"/>
</svg>
