<svg width="42" height="40" viewBox="0 0 42 40" fill="none" xmlns="http://www.w3.org/2000/svg">
<path d="M2.72997 14.8484C2.64213 15.7358 3.20363 30.787 4.07568 31.4643C5.03242 32.2043 23.5116 37.6729 25.8925 37.212C28.1918 36.7667 37.4518 28.6516 38.5434 26.3218C39.5629 24.1519 36.3194 8.43283 35.9649 7.93426C35.554 7.35416 14.9574 2.81685 14.0446 3.48161C11.5414 5.30343 2.80839 14.0488 2.72997 14.8484Z" fill="white"/>
<path d="M0.0824443 14.8483C-0.203009 18.771 0.317708 22.9508 0.656489 26.8579C0.813331 28.6828 0.763142 30.9593 1.66969 32.6056C2.42254 33.9727 4.07252 34.3647 5.4496 34.8319C10.0796 36.4028 14.8225 37.7324 19.578 38.8612C21.4162 39.2971 23.3422 39.8019 25.24 39.8803C27.1755 39.9587 28.8349 38.8048 30.3343 37.7135C32.7089 35.9858 34.9643 34.073 37.0785 32.0349C38.5466 30.6238 40.5008 28.9462 41.1345 26.9394C41.6928 25.1709 41.3352 23.0167 41.1188 21.22C40.7894 18.4825 40.3408 15.7576 39.8264 13.0484C39.4907 11.2799 39.199 9.45493 38.6814 7.72718C38.1858 6.06841 37.1538 5.45069 35.5948 4.98661C31.4541 3.75743 27.1598 2.92334 22.9282 2.08612C20.5128 1.60636 18.0786 1.12975 15.6287 0.860081C13.5835 0.634313 12.4228 1.3367 10.8795 2.67876C8.61783 4.64483 6.47849 6.77081 4.38935 8.91874C3.05305 10.2922 0.643941 12.1924 0.179687 14.149C-0.607664 17.4572 4.49286 18.8713 5.28021 15.5538C5.13592 16.1653 5.02926 16.2468 5.13905 15.9238C5.17983 15.8078 5.45901 15.5946 5.16729 15.8674C4.87242 16.1433 5.59076 15.3751 5.71623 15.234C6.41889 14.4344 7.15291 13.663 7.89321 12.8979C9.58398 11.1513 11.3187 9.43925 13.1004 7.78675C13.803 7.13454 14.5182 6.49801 15.2491 5.87715C15.7071 5.48832 15.0703 5.93358 14.879 5.99002C14.2736 6.17503 14.2798 6.01198 14.8539 6.07783C15.108 6.10605 15.3652 6.12486 15.6224 6.14995C16.3659 6.22207 15.2805 6.08409 16.1055 6.21578C17.0277 6.36002 17.95 6.51369 18.8691 6.68301C23.1415 7.46066 27.395 8.37313 31.611 9.41417C32.3105 9.58663 33.01 9.76224 33.7033 9.95665C33.9762 10.0319 34.2459 10.1197 34.522 10.1949C34.9643 10.3141 35.1587 10.5681 34.5126 10.1542C34.9956 10.4678 33.4649 8.95323 33.6938 9.30756C33.1167 8.40763 33.4931 8.68356 33.515 8.93128C33.5339 9.13196 33.6311 9.35459 33.6813 9.55214C33.8758 10.3204 34.0389 11.0949 34.202 11.8725C35.0866 16.09 36.0088 20.2479 36.0904 24.4434C36.0967 24.7727 36.0653 25.1019 36.0747 25.4311C36.0873 25.983 36.2096 24.9702 36.1029 25.2556C36.081 25.3151 36.0182 25.4876 36.0277 25.544C35.9022 24.7883 36.4041 25.1897 36.0277 25.4029C35.9743 25.4343 35.83 25.6851 35.8112 25.7134C36.1186 25.2775 35.2999 26.2935 35.1148 26.4941C33.4021 28.3661 31.4918 30.0688 29.5375 31.6837C28.7658 32.3202 27.9816 32.9379 27.1629 33.5118C26.7959 33.7689 26.4226 34.0197 26.0368 34.2518C25.8454 34.3678 25.6478 34.4713 25.4533 34.5842C25.1459 34.7629 24.9075 34.6092 25.4408 34.6061C24.713 34.6124 26.1277 34.7441 25.4941 34.6092C25.2714 34.5622 25.0048 34.5779 24.7758 34.5591C24.1609 34.512 25.4125 34.6688 24.7413 34.5528C24.5656 34.5214 24.3899 34.4932 24.2143 34.4619C23.7312 34.3772 23.2513 34.28 22.7744 34.1765C18.3389 33.2327 13.9568 31.9722 9.62476 30.6332C8.66488 30.3353 7.705 30.0343 6.7514 29.7082C6.40634 29.589 6.06443 29.4636 5.72251 29.3445C5.60958 29.3068 5.50293 29.2567 5.39 29.2159C4.94143 29.0623 5.96405 29.5796 5.59076 29.2974C5.22375 29.0184 6.43457 30.2193 6.43144 30.3886C6.43457 30.1221 6.28714 29.7615 6.23382 29.495C6.20245 29.3319 6.18049 29.1657 6.15539 28.9995C6.25577 29.6612 6.1303 28.7895 6.11775 28.6546C6.05815 28.109 6.00483 27.5634 5.95464 27.0147C5.73192 24.503 5.59703 21.9819 5.48724 19.4608C5.42137 17.9495 5.25825 16.3753 5.36804 14.8608C5.62213 11.4523 0.330256 11.468 0.0824443 14.8483Z" fill="white"/>
<path d="M16.005 21.3485V6.85547H26.7111V11.3834H20.5001V16.5415C21.2027 15.3124 22.2567 14.0863 23.6934 14.0863H24.1137C26.2562 14.0863 27.0279 15.8768 27.0279 17.4885V28.2627C27.0279 30.8935 25.5191 33.3518 22.0779 33.3518H20.6726C16.7766 33.3518 15.7227 30.721 15.7227 28.7205V23.3867H20.3903V27.7014C20.3903 28.4382 20.566 28.9305 21.2686 28.9305C21.9368 28.9305 22.1469 28.4038 22.1469 27.7014V19.8058C22.1469 19.1379 22.1469 18.5076 21.3408 18.5076C20.6381 18.5076 20.6036 19.21 20.6036 19.7713V21.3516H16.005V21.3485Z" fill="#111111"/>
</svg>
