<svg width="42" height="41" viewBox="0 0 42 41" fill="none" xmlns="http://www.w3.org/2000/svg">
<path d="M2.72948 25.9187C2.64165 25.0313 3.20314 9.98011 4.07519 9.3028C5.03193 8.56279 23.5111 3.09418 25.892 3.55512C28.1913 4.00039 37.4513 12.1155 38.5429 14.4453C39.5624 16.6152 36.3189 32.3343 35.9644 32.8328C35.5535 33.4129 14.9569 37.9502 14.0441 37.2855C11.5409 35.4668 2.8079 26.7214 2.72948 25.9187Z" fill="white"/>
<path d="M5.37416 25.9188C5.12634 22.4883 5.57491 18.8604 5.82586 15.4394C5.90115 14.4171 5.98271 13.398 6.09563 12.3789C6.11759 12.1689 6.14268 11.9619 6.16778 11.755C6.26189 10.9773 6.07367 12.2786 6.19287 11.5762C6.24934 11.2501 6.35913 10.902 6.38422 10.5728C6.3905 10.5038 6.45951 10.4035 6.4501 10.3376C6.50029 10.7202 5.58746 11.457 5.4463 11.5605C5.6251 11.4288 6.15837 11.2815 5.27691 11.6107C5.86978 11.3912 6.45951 11.1717 7.05865 10.971C11.2401 9.56626 15.5093 8.36843 19.788 7.3023C20.7385 7.06713 21.6889 6.83822 22.6457 6.63441C23.0942 6.5372 23.5428 6.44627 23.9914 6.3616C24.1733 6.32711 24.3553 6.29889 24.5372 6.2644C25.1552 6.14838 24.6784 6.23617 24.6909 6.23303C24.9419 6.20795 25.2555 6.23303 25.4971 6.17345C26.1056 6.01667 24.7599 6.29261 25.4438 6.17659C25.2116 6.21736 24.9607 5.94143 25.2806 6.10762C25.4688 6.20482 25.6539 6.30202 25.8359 6.40863C26.2938 6.67202 26.733 6.96991 27.1659 7.27094C29.0794 8.60987 30.858 10.162 32.5675 11.7487C33.4459 12.564 34.3085 13.4012 35.1209 14.2854C35.4095 14.6021 35.7013 14.922 35.9648 15.2606C35.6385 14.8404 35.8612 15.154 35.9303 15.2261C36.3318 15.6526 35.9428 15.7811 36.0306 15.2355C36.0275 15.2575 36.0777 15.4237 36.0934 15.4582C36.2722 15.9066 36.0777 14.784 36.0777 15.3484C36.0777 15.6777 36.0996 16.0038 36.0934 16.3362C36.0746 17.3082 35.9742 18.2803 35.8644 19.2492C35.6291 21.3093 35.2056 23.7583 34.7822 26.0034C34.4528 27.75 34.1203 29.5028 33.6843 31.2274C33.6341 31.4218 33.5368 31.6445 33.518 31.8483C33.4961 32.0929 33.1165 32.3719 33.6968 31.472C33.1259 32.3594 34.9861 30.3181 34.5406 30.6128C34.7069 30.5031 35.237 30.3871 34.641 30.547C34.3556 30.6223 34.0732 30.7195 33.7878 30.801C29.9044 31.8922 25.93 32.7043 21.9775 33.4977C20.8043 33.7328 19.6312 33.9586 18.4548 34.1718C17.9404 34.2628 17.426 34.3537 16.9115 34.4352C16.717 34.4666 16.5225 34.4979 16.3281 34.5293C16.2528 34.5418 15.409 34.661 15.8356 34.6046C16.1587 34.5607 15.249 34.6704 15.0639 34.6861C14.8726 34.6986 14.54 34.6453 14.3644 34.7112C14.1009 34.8084 15.1455 34.846 14.8255 34.777C15.4058 35.0718 15.547 35.1188 15.249 34.915C15.5187 35.1251 15.5752 35.1658 15.4152 35.0373C15.111 34.6892 14.6624 34.4039 14.3142 34.0966C12.2972 32.3092 10.3712 30.4122 8.48278 28.4869C7.62642 27.612 6.77633 26.7309 5.96075 25.8215C5.67216 25.4986 5.3867 25.1725 5.11066 24.8369C4.89108 24.5704 5.33651 25.37 5.20163 24.953C5.09811 24.6363 5.07615 24.3885 5.27691 25.2289C4.48956 21.9176 -0.614099 23.3193 0.176388 26.6337C0.584179 28.3458 2.5353 29.9324 3.70221 31.1522C5.60628 33.1433 7.56995 35.0843 9.59322 36.95C10.9703 38.22 12.4572 39.9665 14.4554 40.0073C16.1116 40.0418 17.8337 39.6342 19.4586 39.3488C24.1639 38.5241 28.8566 37.5176 33.4898 36.3542C34.6975 36.0501 36.1655 35.8212 37.2509 35.1658C38.6876 34.3004 38.8758 32.3218 39.1957 30.8292C40.2089 26.1226 41.2849 21.1776 41.379 16.3487C41.4197 14.1788 40.7798 12.796 39.3933 11.1654C37.6587 9.12413 35.6072 7.31797 33.5588 5.60276C31.7739 4.11332 29.9012 2.47964 27.7807 1.47623C26.0147 0.639009 24.327 0.943163 22.47 1.29436C17.6989 2.19116 12.9904 3.58966 8.35417 5.01639C6.59125 5.55886 4.49584 6.00727 2.88036 6.94483C1.05157 8.00783 1.0202 10.4003 0.810032 12.2598C0.502621 15.0192 0.355189 17.8005 0.226578 20.5756C0.145019 22.3315 -0.0526025 24.169 0.0728717 25.9282C0.326957 29.2959 5.62197 29.321 5.37416 25.9188Z" fill="white"/>
<path d="M24.4686 16.5996C26.7491 16.5996 27.6275 18.459 27.6275 19.8983V28.5308C27.6275 31.1271 25.8018 33.7579 22.2917 33.7579H21.2377C17.4829 33.7579 15.7607 31.4062 15.7607 28.6687V12.4919C15.7607 9.22762 17.4107 6.948 21.1655 6.948H22.1474C25.4819 6.948 27.1318 9.01754 27.1318 11.2627V15.1917H22.3262V12.2786C22.3262 11.6107 22.185 11.2595 21.4824 11.2595C20.8142 11.2595 20.604 11.7518 20.604 12.2786V18.9105C21.2722 18.1392 22.3952 16.5933 24.1832 16.5933H24.4686V16.5996ZM22.7497 27.9695V21.9678C22.7497 21.0209 22.4328 20.6697 21.6957 20.6697C20.9585 20.6697 20.6072 21.0898 20.6072 21.9333V27.9695C20.6072 28.6719 20.7483 29.3366 21.6957 29.3366C22.643 29.3366 22.7497 28.6374 22.7497 27.9695Z" fill="#111111"/>
</svg>
