<svg width="1440" height="835" viewBox="0 0 1440 835" fill="none" xmlns="http://www.w3.org/2000/svg">
<path d="M1440 3.05176e-05H0V836H1440V3.05176e-05Z" fill="#009E5C"/>
<path d="M1809.75 1036.59C1813.87 1149.73 1802.97 1259.83 1762.23 1365.31C1706.35 1509.95 1599.95 1596.17 1449.31 1624.42C1164.98 1677.73 847.582 1530.16 758.4 1191.15C728.238 1076.53 726.65 959.443 737.233 841.898C749.828 700.788 785.67 565.887 839.01 435.325C903.674 276.929 1017.09 161.254 1160.67 72.5659C1206.53 44.1322 1253.31 16.6863 1299.07 -12.1002C1316.25 -23.0933 1332.48 -35.4948 1347.61 -49.1769C1392.09 -89.0404 1393.93 -89.4991 1429.88 -43.5325C1595.68 168.45 1709.56 405.621 1769.63 667.556C1797.57 788.876 1814.16 912.382 1809.75 1036.59Z" fill="#008C4C"/>
<path d="M-237.137 2354.74C-232.833 2256.84 -208.138 2162.51 -184.573 2068.25C-123.209 1825.52 -43.0027 1587.95 55.3154 1357.69C134.479 1171.39 253.4 1015.99 409.927 886.63C541.759 777.693 671.475 666.816 824.545 587.794C899.405 548.989 977.862 521.225 1062.39 514.699C1216.83 502.74 1323.69 572.977 1394.35 707.103C1489.88 888.5 1503.71 1076.49 1435.87 1268.4C1391.18 1395.99 1355.14 1526.45 1327.99 1658.89C1312.54 1733.29 1280.3 1801.16 1223.36 1852.92C1122.01 1945.34 1042.67 2054 978.568 2174.29C908.93 2305.24 811.175 2411.99 691.16 2497.68C556.259 2594.03 420.616 2690.12 259.256 2739.33C148.343 2773.17 32.5965 2777.08 -81.2798 2792.25C-107.421 2795.78 -120.085 2782.87 -121.779 2759.34C-127.882 2671.6 -160.584 2593.04 -199.813 2515.68C-225.32 2465.92 -238.141 2410.64 -237.137 2354.74Z" fill="#FFC64F"/>
</svg>
