<svg width="137" height="137" viewBox="0 0 137 137" fill="none" xmlns="http://www.w3.org/2000/svg">
<g clip-path="url(#clip0_34_413)">
<path d="M68.7718 136.769C106.325 136.769 136.769 106.326 136.769 68.7719C136.769 31.2182 106.325 0.774994 68.7718 0.774994C31.2181 0.774994 0.774902 31.2182 0.774902 68.7719C0.774902 106.326 31.2181 136.769 68.7718 136.769Z" fill="#FFC64F"/>
<path d="M27.6235 90.5909L27.5109 91.01C27.4109 91.3916 27.292 91.6606 27.1669 91.8107C27.0418 91.9609 26.8228 92.0422 26.5163 92.0422H24.8711L24.1455 96.5962H28.2366C29.7692 96.5962 30.8764 95.564 31.5645 93.4997L40.2408 68.2714C38.9272 68.2089 37.6198 68.1651 36.3249 68.1401H35.5054L31.9461 79.9566L32.1775 68.1401H31.6145C30.132 68.1651 28.6745 68.2151 27.242 68.2839L27.8487 88.145C27.855 89.1396 27.7737 89.9529 27.6235 90.5909Z" fill="white"/>
<path d="M44.6447 96.5962L47.3596 79.575L47.1657 96.5962H49.0798L54.203 79.575L51.4882 96.5962H55.9608L60.0081 71.0739C58.0001 70.5734 55.9858 70.1481 53.9591 69.7852L50.2996 82.5964L50.6499 69.2535C48.6795 68.972 46.7153 68.7468 44.7573 68.5779L40.3159 96.5962H44.6447Z" fill="white"/>
<path d="M58.3317 89.8278C57.9752 92.0735 58.3005 93.8312 59.3076 95.1074C60.3147 96.3835 61.8911 97.0215 64.0305 97.0215H65.0626C68.4531 97.0215 70.5424 94.6882 71.3368 90.0217L73.6889 75.1712C71.9812 74.7521 70.2797 74.2642 68.5907 73.7074C68.6345 73.9702 68.6407 74.2767 68.5844 74.652L66.101 90.3344C65.9196 91.4041 65.4254 91.9421 64.6122 91.9421C63.6676 91.9421 63.2736 91.4041 63.4237 90.3344L65.9071 74.652C66.0072 73.9889 66.1698 73.5135 66.3825 73.2195C66.4388 73.1444 66.5014 73.0819 66.5764 73.0256C64.9375 72.4626 63.2798 71.9559 61.6159 71.5055C61.2093 72.5001 60.8902 73.6824 60.6713 75.0774L58.3317 89.8278Z" fill="white"/>
<path d="M76.541 96.5962L78.3363 85.1987H81.2076C82.8403 85.1987 84.0476 84.7108 84.842 83.7287C85.6302 82.7466 86.1682 81.3266 86.4497 79.4625L86.8187 77.1542C85.1798 77.0478 83.5346 76.8852 81.8894 76.6788L81.5141 79.0433C81.4391 79.6063 81.3077 80.0004 81.1325 80.2256C80.9511 80.4571 80.6196 80.5697 80.1379 80.5697H79.1058L79.7626 76.3785C78.1612 76.1283 76.5598 75.828 74.9584 75.4652L71.6055 96.5962H76.541Z" fill="white"/>
<path d="M88.6205 84.7045L83.6099 96.5962H88.8082L93.2433 85.9619H93.6624L91.9797 96.5962H96.9152L100.012 77.0791C98.379 77.198 96.7151 77.2855 95.0386 77.3231L94.3943 81.3328H93.4372C92.8992 81.3328 92.5677 81.2015 92.4426 80.9325C92.3175 80.6635 92.305 80.2631 92.405 79.7252L92.7804 77.3481C91.1477 77.3481 89.4963 77.3106 87.8323 77.2167L87.3569 80.2256C86.9503 82.5214 87.3756 84.0164 88.6205 84.7045Z" fill="white"/>
<path d="M38.0263 40.8725L33.8977 55.3289L34.2793 40.8725H28.4242L25.334 60.3645C26.7602 60.2769 28.2178 60.2081 29.694 60.1643L30.9451 52.3075L30.8638 60.1331C32.3714 60.0955 33.904 60.0893 35.4491 60.1018L37.7949 52.3075L36.55 60.1206C38.0201 60.1518 39.4964 60.2019 40.9914 60.2832L44.0691 40.8725H38.0263Z" fill="white"/>
<path d="M52.558 40.8725L49.0049 52.6891L49.2363 40.8725H44.3008L44.9013 60.5647C46.7154 60.7273 48.5295 60.9275 50.3561 61.184L57.3372 40.8725H52.558Z" fill="white"/>
<path d="M54.7409 58.8882L54.2905 61.8221C55.8919 62.1098 57.4871 62.4476 59.076 62.8229L59.6765 58.8882H54.7409Z" fill="white"/>
<path d="M67.0893 57.9687C67.4209 55.6479 66.8954 54.2467 65.5192 53.7588C66.7953 53.2771 67.6085 51.9634 67.9651 49.8178L68.5031 46.3022C68.7595 44.5194 68.4718 43.1057 67.6398 42.0736C66.8141 41.0414 65.3628 40.5222 63.2985 40.5222H62.4165C60.6587 40.5222 59.3513 40.9663 58.4943 41.8609C57.6373 42.7554 57.0869 44.1191 56.8304 45.9519L56.2549 49.6239H61.1529L61.6096 46.7964C61.6846 46.2835 61.816 45.9394 61.9911 45.7643C62.1663 45.5891 62.4228 45.4953 62.7543 45.4953C63.4424 45.4953 63.7114 45.9269 63.555 46.7964L62.9795 50.3558C62.9044 50.8375 62.7793 51.169 62.6167 51.3504C62.4478 51.5318 62.1538 51.6194 61.7159 51.6194H59.3451L58.5444 56.7051H61.0278C61.4594 56.7051 61.7347 56.8052 61.8473 57.0116C61.9599 57.218 61.9786 57.5621 61.9036 58.0438L61.0966 63.3296C62.7418 63.7612 64.3745 64.2492 65.9946 64.7934C66.0634 64.4931 66.1197 64.1866 66.176 63.8613L67.0893 57.9687Z" fill="white"/>
<path d="M84.2229 40.8725L79.8628 68.3715C81.4767 68.6217 83.0906 68.8156 84.7045 68.9658L89.1584 40.8725H84.2229Z" fill="white"/>
<path d="M79.444 63.7425L80.5512 56.8615C81.2143 53.0394 79.9131 51.1252 76.6478 51.1252H74.2394L75.8846 40.8725H70.9491L67.0957 65.1687C67.1645 65.1937 67.2396 65.2188 67.3084 65.2438C70.7489 66.4636 74.2394 67.3644 77.73 68.0087C77.7425 67.9962 77.7613 67.9837 77.7738 67.9712C78.612 67.0641 79.1625 65.6566 79.444 63.7425ZM75.5468 57.3556L74.5897 63.2858C74.4897 63.8488 74.3333 64.2617 74.1331 64.5307C73.9267 64.7996 73.5576 64.931 73.0259 64.931H72.0688L73.5201 55.7542H74.4772C75.0151 55.7542 75.3529 55.8919 75.4905 56.1734C75.6282 56.4549 75.6469 56.8489 75.5468 57.3556Z" fill="white"/>
<path d="M103.54 40.8725H98.5291L93.7124 51.6944L95.4326 40.8725H90.4971L86.0244 69.0784C87.6696 69.2035 89.3023 69.2785 90.9224 69.3098L92.8679 57.0178L94.2441 69.3161C95.9894 69.2911 97.7221 69.216 99.4174 69.0971L97.6846 53.9902L103.54 40.8725Z" fill="white"/>
<path d="M107.556 40.8725L99.6304 69.0784C101.175 68.972 102.702 68.8282 104.203 68.6593L105.223 64.5432H108.244L108.069 68.1588C109.689 67.9211 111.266 67.6521 112.798 67.3644L113.405 40.8725H107.556ZM106.486 59.6514L108.895 50.0493L108.476 59.6514H106.486Z" fill="white"/>
<path d="M102.77 75.5465H102.151V75.1775H103.846V75.5465H103.227V77.1229H102.776V75.5465H102.77Z" fill="white"/>
<path d="M105.848 77.1229V75.9594L105.278 76.9227H105.078L104.509 75.9844V77.1229H104.09V75.1775H104.459L105.185 76.3848L105.904 75.1775H106.273L106.279 77.1229H105.848Z" fill="white"/>
</g>
<defs>
<clipPath id="clip0_34_413">
<rect width="136" height="136" fill="white" transform="translate(0.774902 0.774994)"/>
</clipPath>
</defs>
</svg>
