<svg width="2123" height="1975" viewBox="0 0 2123 1975" fill="none" xmlns="http://www.w3.org/2000/svg">
<path d="M1642.29 401.635C1713.55 423.577 1783.71 429.61 1852.26 443.544C1915.76 456.456 1978.2 472.507 2031.19 512.194C2077.97 547.19 2113.14 590.757 2119.66 651.082C2126.97 717.58 2080.12 758.855 2014.36 746.331C1939.01 732.22 1876.25 692.251 1814.62 649.459C1783.04 627.481 1751.75 605.045 1720.36 582.82C1699.82 568.25 1678.02 556.468 1652.55 553.61C1638.16 551.987 1624.61 554.174 1617.84 568.744C1610.78 584.019 1615.72 597.919 1627.79 608.502C1645.92 624.483 1668.29 632.949 1690.72 640.922C1734.33 656.479 1779.76 667.38 1820.16 691.122C1936.57 759.49 1994.07 859.36 1982.43 995.531C1973.65 1097.45 1900.55 1137.84 1809.57 1091.31C1746.07 1058.71 1696.3 1009.15 1649.94 956.056C1599.28 898.024 1552.26 836.959 1495.53 784.431C1476.02 766.404 1455.31 751.623 1427.94 748.448C1390.37 744.073 1374.7 761.606 1383.98 798.648C1390.54 824.682 1406.49 845.179 1423.78 864.864C1469.11 916.51 1526.36 953.728 1581.22 993.591C1670.37 1058.43 1729.03 1142.32 1748.01 1251.68C1757.61 1307 1753.2 1360.51 1712.98 1404.68C1671.74 1449.91 1625.14 1453.36 1578.29 1414.24C1540.3 1382.49 1513.84 1341.5 1491.83 1297.83C1422.26 1159.64 1338.72 1031.09 1232.11 918.274C1194.29 878.269 1176.69 873.33 1149.99 895.308C1118.73 921.096 1118.41 958.808 1146.78 997.613C1238.5 1123.8 1329.9 1250.45 1401.83 1389.65C1451.22 1485.57 1487.06 1584.63 1472.78 1695.26C1465.16 1754.07 1440 1803.1 1390.19 1837.36C1346.76 1867.2 1303.37 1860.82 1269.89 1820.46C1241.67 1786.59 1226.82 1746.38 1214.65 1705C1143.42 1463.84 1054.28 1229.95 933.804 1008.58C930.03 1001.53 926.467 994.473 922.833 987.418C911.862 966.251 893.412 953.269 870.728 957.89C848.044 962.512 847.163 985.407 845.787 1004.85C842.259 1053.67 855.276 1099.39 875.737 1142.64C923.433 1243.36 961.744 1346.54 972.751 1458.51C986.862 1602.8 960.827 1737.98 882.193 1860.92C858.099 1898.6 828.818 1937.76 776.642 1924.42C728.383 1912.01 723.726 1865.37 721.256 1825.05C715.471 1736.85 715.295 1648.66 709.474 1560.47C702.806 1458.94 695.68 1357.27 674.796 1257.29C671.682 1240.61 667.355 1224.17 661.849 1208.11C644.633 1161.23 592.422 1150.44 558.909 1187.58C505.04 1247.27 489.2 1319.7 489.835 1398.19C490.646 1493.83 515.834 1586.32 523.56 1681.04C529.769 1757.56 528.287 1832.98 493.186 1903.29C471.102 1947.5 437.765 1977.38 383.825 1974.45C370.984 1973.74 358.708 1971.13 348.548 1963.86C223.524 1873.34 121.783 1765.22 90.1739 1607.56C68.7599 1500.78 101.216 1403.87 153.427 1312.36C222.677 1190.97 320.643 1093.32 418.821 996.061C440.755 974.732 460.297 951.073 477.1 925.506C482.956 916.439 491.528 905.574 480.275 895.061C470.644 886.065 457.767 888.006 448.525 894.603C422.324 912.393 397.089 931.564 372.925 952.034C295.666 1019.34 226.452 1093.39 180.52 1186.67C169.718 1207.88 156.837 1227.97 142.067 1246.64C114.833 1281.91 87.0339 1292.22 54.3699 1281.91C22.8298 1271.97 4.97981 1244.7 1.44981 1202.86C-5.89019 1117.31 30.7299 1049.12 86.4339 988.899C144.008 926.599 216.292 883.878 287.517 839.534C332.637 811.312 376.664 781.503 420.726 751.799C436.036 741.498 452.229 728.445 441.892 707.491C431.979 687.206 411.448 690.099 393.809 695.214C325.935 714.758 275.241 759.384 229.344 810.466C204.403 838.264 180.802 867.439 154.45 893.791C118.749 929.492 79.9788 936.724 47.3498 917.18C17.7798 899.541 3.17982 854.633 14.9598 810.818C34.1898 739.276 87.0699 694.579 145.489 656.338C248.465 588.888 364.211 554.492 484.155 532.867C522.079 525.988 560.073 519.638 595.703 504.857C615.494 496.672 636.943 485.983 635.673 459.807C634.473 434.196 613.307 423.26 592.775 417.051C526.065 396.625 460.801 398.812 400.865 438.923C381.144 452.117 363.435 468.239 344.632 482.773C326.676 496.672 308.119 508.949 285.506 514.946C222.007 531.738 173.888 490.252 187.717 426.752C212.411 312.947 389.293 147.143 550.724 192.545C594.493 204.891 634.399 228.176 666.682 260.207C682.945 276.047 699.349 291.957 719.598 302.54C736.426 311.536 754.876 314.781 770.222 300.423C784.933 286.63 775.796 270.437 769.128 256.503C756.287 229.762 739.954 204.751 715.012 187.888C649.008 143.297 671.55 74.294 724.114 41.239C781.581 5.11505 844.058 -4.83295 909.816 3.88104C950.166 9.53605 989.63 20.312 1027.26 35.948C1119.26 73.448 1179.55 138.641 1207.17 234.384C1216.04 267.086 1227.03 299.175 1240.08 330.445C1270.07 399.553 1329.8 418.462 1396.22 382.197C1426.46 365.722 1450.16 341.345 1474.08 317.286C1549.65 241.475 1629.66 170.955 1732.31 134.407C1846.12 93.838 1955.27 98.424 2050.13 183.478C2096.2 224.788 2118.11 279.116 2122.52 339.793C2127.78 411.371 2085.23 446.79 2014.04 432.15C1960.63 421.143 1912.3 394.826 1859.95 380.256C1809.33 366.145 1758.88 355.809 1706.14 367.556C1683.45 372.636 1664.12 382.973 1642.29 401.635Z" fill="#375A44"/>
</svg>
