<svg width="1091" height="1450" viewBox="0 0 1091 1450" fill="none" xmlns="http://www.w3.org/2000/svg">
<g clip-path="url(#clip0_4264_50)">
<path d="M0.0450632 1171.15C2.80498 1108.9 18.4028 1048.89 33.4718 988.949C72.351 834.312 123.597 683.743 186.017 537.001C236.417 418.511 312.05 319.676 411.599 237.41C495.454 168.117 577.954 97.6016 675.33 47.3382C722.94 22.7594 772.85 4.99842 826.606 0.834637C924.828 -6.77171 992.796 37.8952 1037.74 123.219C1098.51 238.584 1107.22 358.15 1064.15 480.227C1035.44 561.599 1013.06 644.259 995.547 728.592C985.719 775.894 965.197 819.07 928.992 852.092C864.523 910.885 814.066 979.88 773.302 1056.51C728.999 1139.8 666.829 1207.69 590.484 1262.2C504.686 1323.47 418.417 1384.59 315.771 1415.89C245.235 1437.41 171.621 1439.9 99.1808 1449.64C82.554 1451.87 74.4762 1443.67 73.428 1428.7C69.5333 1372.89 48.6945 1322.93 23.788 1273.71C7.70935 1241.96 -0.695401 1207.38 0.0450632 1171.15Z" fill="#008C4C"/>
</g>
<defs>
<clipPath id="clip0_4264_50">
<rect width="1091" height="1450" fill="white"/>
</clipPath>
</defs>
</svg>
