<svg width="924" height="859" viewBox="0 0 924 859" fill="none" xmlns="http://www.w3.org/2000/svg">
<g clip-path="url(#clip0_4105_57)">
<path d="M714.693 174.387C745.717 183.937 776.269 186.568 806.106 192.621C833.784 198.248 860.945 205.243 884.015 222.504C904.378 237.742 919.692 256.721 922.566 283C925.745 311.955 905.351 329.915 876.731 324.471C843.882 318.22 816.508 300.899 789.743 282.27C775.995 272.704 762.369 262.941 748.698 253.253C739.755 246.927 730.296 241.787 719.18 240.54C712.914 239.84 707.013 240.783 704.078 247.125C700.991 253.786 703.151 259.823 708.397 264.446C716.305 271.396 726.038 275.076 735.801 278.559C754.781 285.326 774.55 290.071 792.13 300.412C842.726 330.174 867.834 373.652 862.739 432.932C858.922 477.292 827.093 494.887 787.538 474.616C759.829 460.427 738.235 438.847 718.039 415.732C695.988 390.502 675.518 363.889 650.821 341.017C642.335 333.154 633.317 326.722 621.394 325.338C605.046 323.437 598.233 331.071 602.279 347.191C605.122 358.536 612.072 367.463 619.6 376.025C639.324 398.501 664.265 414.698 688.126 432.049C726.951 460.275 752.484 496.804 760.742 544.403C764.924 568.492 763.008 591.775 745.489 611.013C727.544 630.707 707.257 632.212 686.863 615.18C670.317 601.371 658.805 583.517 649.224 564.493C618.931 504.347 582.569 448.383 536.156 399.262C519.701 381.849 512.021 379.659 500.403 389.255C486.792 400.479 486.67 416.872 499.004 433.814C539 488.759 578.722 543.886 610.034 604.489C631.614 646.249 647.141 689.378 640.906 737.525C637.591 763.119 626.641 784.486 604.955 799.39C586.052 812.377 567.164 809.609 552.58 792.029C540.353 777.293 533.829 759.728 528.537 741.768C497.528 636.759 458.688 534.944 406.283 438.574C404.64 435.547 403.089 432.475 401.507 429.419C396.732 420.172 388.687 414.546 378.833 416.553C368.948 418.576 368.568 428.537 367.959 436.992C366.439 458.252 372.111 478.159 381.008 496.971C401.751 540.814 418.434 585.738 423.239 634.493C429.429 697.301 418.038 756.154 383.821 809.67C373.343 826.064 360.584 843.112 337.879 837.272C316.862 831.858 314.915 811.571 313.759 794.006C311.25 755.653 311.174 717.147 308.635 678.793C305.73 634.6 302.612 590.33 293.533 546.806C292.028 539.583 290.431 532.298 287.891 525.409C280.394 505.016 257.674 500.301 243.09 516.467C219.624 542.487 212.735 574.013 213.039 608.184C213.404 649.823 224.369 690.092 227.73 731.336C230.437 764.64 229.783 797.489 214.499 828.086C204.888 847.324 190.38 860.357 166.869 859.049C161.273 858.745 155.935 857.62 151.525 854.426C97.0964 815.023 52.8118 767.956 39.0489 699.354C29.7267 652.864 43.8545 610.678 66.5747 570.849C96.7162 518.003 139.374 475.498 182.107 433.16C191.612 423.746 200.25 413.709 207.473 402.516C210.013 398.578 213.754 393.848 208.857 389.27C204.675 385.347 199.064 386.259 195.034 389.073C183.749 396.966 172.481 405.026 162.109 414.059C128.485 443.364 98.3435 475.589 78.3454 516.208C73.8136 525.409 67.8978 534.108 61.6171 542.259C49.7551 557.634 37.665 562.105 23.4307 557.604C9.71343 553.269 1.95754 541.408 0.406365 523.189C-2.78724 485.945 13.1504 456.26 37.3913 430.042C62.4687 402.927 93.9333 384.313 124.911 365.014C144.544 352.772 163.706 339.77 182.898 326.828C189.559 322.342 196.615 316.669 192.144 307.545C187.825 298.709 178.883 299.987 171.203 302.192C141.655 310.708 119.604 330.128 99.6209 352.377C88.7475 364.482 78.4823 377.165 67.0005 388.647C51.4736 404.189 34.5931 407.337 20.3892 398.821C7.52353 391.111 1.15154 371.599 6.29172 352.529C14.6711 321.384 37.6955 301.918 63.0922 285.281C107.939 255.915 158.322 240.951 210.53 231.476C227.03 228.48 243.576 225.712 259.088 219.28C267.711 215.706 277.033 211.052 276.486 199.662C275.953 188.56 266.677 183.8 257.811 181.093C228.764 172.212 200.341 173.155 174.26 190.629C165.683 196.362 157.973 203.388 149.791 209.714C141.974 215.751 133.884 221.12 124.06 223.72C96.3969 231.035 75.4712 212.999 81.4782 185.336C92.2604 135.805 169.226 63.6144 239.501 83.3844C258.936 88.8591 275.619 98.8353 289.99 112.826C297.077 119.715 304.209 126.62 312.969 131.304C320.299 135.227 328.344 136.641 335.005 130.376C341.407 124.369 337.438 117.313 334.533 111.26C328.952 99.6109 321.835 88.7222 310.976 81.3922C282.234 61.9872 292.058 31.937 314.946 17.5505C339.947 1.82586 367.138 -2.50831 395.774 1.2936C413.339 3.62036 430.372 8.51722 446.917 15.2542C486.959 31.572 513.207 59.9494 525.221 101.633C529.297 115.777 533.662 129.98 539.547 143.439C552.671 173.474 578.676 181.702 607.601 165.916C620.756 158.738 631.082 148.123 641.529 137.645C674.423 104.645 709.264 73.9556 753.944 58.0332C803.475 40.3772 850.999 42.3694 892.303 79.3999C912.362 97.3754 921.897 121.038 923.813 147.454C926.079 178.614 907.556 194.035 876.563 187.648C853.311 182.857 832.263 171.391 809.482 165.064C787.431 158.936 765.487 154.419 742.523 159.544C732.623 161.749 724.198 166.22 714.693 174.387Z" fill="#FEF2D9"/>
</g>
<defs>
<clipPath id="clip0_4105_57">
<rect width="924" height="859" fill="white"/>
</clipPath>
</defs>
</svg>
