<svg width="926" height="861" viewBox="0 0 926 861" fill="none" xmlns="http://www.w3.org/2000/svg">
<g clip-path="url(#clip0_4105_60)">
<path d="M715.693 176.217C746.717 185.768 777.269 188.399 807.106 194.451C834.784 200.078 861.945 207.074 885.015 224.334C905.378 239.572 920.692 258.551 923.566 284.83C926.745 313.785 906.351 331.746 877.731 326.301C844.882 320.051 817.508 302.73 790.743 284.1C776.995 274.535 763.369 264.771 749.698 255.084C740.755 248.758 731.296 243.617 720.18 242.37C713.914 241.671 708.013 242.614 705.078 248.955C701.991 255.616 704.151 261.654 709.397 266.277C717.305 273.227 727.038 276.907 736.801 280.39C755.781 287.157 775.55 291.902 793.13 302.243C843.726 332.004 868.834 375.483 863.739 434.762C859.922 479.123 828.093 496.718 788.538 476.446C760.829 462.258 739.235 440.678 719.039 417.562C696.988 392.333 676.518 365.719 651.821 342.847C643.335 334.985 634.317 328.552 622.394 327.168C606.046 325.267 599.233 332.901 603.279 349.022C606.122 360.366 613.072 369.293 620.6 377.855C640.324 400.332 665.265 416.528 689.126 433.88C727.951 462.105 753.484 498.634 761.742 546.234C765.924 570.323 764.008 593.606 746.489 612.843C728.544 632.537 708.257 634.043 687.863 617.01C671.317 603.202 659.805 585.348 650.224 566.323C619.931 506.177 583.569 450.213 537.156 401.092C520.701 383.68 513.021 381.49 501.403 391.086C487.792 402.309 487.67 418.703 500.004 435.644C540 490.589 579.722 545.717 611.034 606.319C632.614 648.079 648.141 691.208 641.906 739.356C638.591 764.95 627.641 786.317 605.955 801.22C587.052 814.208 568.164 811.44 553.58 793.86C541.353 779.124 534.829 761.559 529.537 743.599C498.528 638.59 459.688 536.775 407.283 440.404C405.64 437.378 404.089 434.306 402.507 431.249C397.732 422.003 389.687 416.376 379.833 418.384C369.948 420.406 369.568 430.367 368.959 438.823C367.439 460.083 373.111 479.99 382.008 498.801C402.751 542.645 419.434 587.568 424.239 636.324C430.429 699.131 419.038 757.985 384.821 811.501C374.343 827.894 361.584 844.942 338.879 839.102C317.862 833.689 315.915 813.402 314.759 795.837C312.25 757.483 312.174 718.977 309.635 680.624C306.73 636.43 303.612 592.161 294.533 548.637C293.028 541.413 291.431 534.129 288.891 527.24C281.394 506.846 258.674 502.132 244.09 518.298C220.624 544.318 213.735 575.843 214.039 610.015C214.404 651.653 225.369 691.923 228.73 733.166C231.437 766.471 230.783 799.319 215.499 829.917C205.888 849.155 191.38 862.188 167.869 860.88C162.273 860.576 156.935 859.45 152.525 856.257C98.0964 816.854 53.8118 769.786 40.0489 701.184C30.7267 654.695 44.8545 612.509 67.5747 572.68C97.7162 519.834 140.374 477.328 183.107 434.99C192.612 425.577 201.25 415.54 208.473 404.347C211.013 400.408 214.754 395.679 209.857 391.101C205.675 387.177 200.064 388.09 196.034 390.903C184.75 398.796 173.481 406.856 163.109 415.889C129.485 445.195 99.3435 477.42 79.3454 518.039C74.8136 527.24 68.8978 535.938 62.617 544.09C50.7551 559.465 38.665 563.936 24.4307 559.434C10.7134 555.1 2.95754 543.238 1.40637 525.019C-1.78724 487.776 14.1504 458.091 38.3913 431.873C63.4687 404.757 94.9332 386.143 125.911 366.845C145.544 354.603 164.706 341.6 183.898 328.659C190.559 324.172 197.615 318.5 193.144 309.375C188.825 300.54 179.883 301.817 172.203 304.022C142.655 312.538 120.604 331.959 100.621 354.207C89.7475 366.313 79.4823 378.996 68.0005 390.478C52.4736 406.02 35.5931 409.168 21.3892 400.651C8.52353 392.941 2.15154 373.43 7.29172 354.359C15.6711 323.214 38.6955 303.748 64.0922 287.111C108.939 257.745 159.322 242.781 211.53 233.307C228.03 230.311 244.576 227.543 260.088 221.11C268.711 217.536 278.033 212.883 277.486 201.492C276.953 190.391 267.677 185.631 258.811 182.924C229.764 174.043 201.341 174.985 175.26 192.459C166.683 198.192 158.973 205.218 150.791 211.545C142.974 217.582 134.884 222.95 125.06 225.551C97.3969 232.866 76.4712 214.829 82.4782 187.167C93.2604 137.636 170.226 65.445 240.501 85.2149C259.936 90.6896 276.619 100.666 290.99 114.657C298.077 121.546 305.209 128.45 313.969 133.134C321.299 137.058 329.344 138.472 336.005 132.206C342.407 126.199 338.438 119.143 335.533 113.09C329.952 101.441 322.835 90.5527 311.976 83.2227C283.234 63.8177 293.058 33.7675 315.946 19.3811C340.962 3.65639 368.153 -0.662579 396.774 3.12412C414.339 5.45089 431.372 10.3477 447.917 17.0847C487.959 33.4025 514.207 61.7799 526.221 103.464C530.297 117.607 534.662 131.811 540.547 145.27C553.671 175.305 579.676 183.532 608.601 167.747C621.756 160.569 632.082 149.954 642.529 139.476C675.423 106.475 710.264 75.7862 754.944 59.8638C804.475 42.2077 851.999 44.1999 893.303 81.2305C913.362 99.2059 922.897 122.869 924.813 149.285C927.079 180.445 908.556 195.866 877.563 189.478C854.311 184.688 833.263 173.221 810.482 166.895C788.431 160.766 766.487 156.25 743.523 161.375C733.623 163.58 725.198 168.051 715.693 176.217Z" stroke="white" stroke-width="2" stroke-miterlimit="10"/>
</g>
<defs>
<clipPath id="clip0_4105_60">
<rect width="926" height="861" fill="white"/>
</clipPath>
</defs>
</svg>
